<svg viewBox="0 0 162 41" fill="none" xmlns="http://www.w3.org/2000/svg">
    <path d="M50.3599 10.0619H57.3325L60.3379 18.3569H60.8789L63.704 10.0619H70.6165V30.2585H65.5674V18.1165H65.0264L61.9007 26.5317H59.0155L55.8899 18.1165H55.3489V30.2585H50.3599V10.0619Z" fill="white"/>
    <path d="M74.2737 14.0291C74.454 13.5482 74.8147 13.0673 75.1753 12.5864C75.5961 12.0455 76.0769 11.5646 76.7381 11.1438C77.3392 10.7231 78.1206 10.3624 78.9622 10.0619C79.8638 9.76133 80.8255 9.64111 82.0277 9.64111C83.1698 9.64111 84.1916 9.76133 85.0933 10.0619C85.9949 10.3624 86.7162 10.7231 87.3173 11.1438C87.9184 11.5646 88.4593 12.0455 88.8801 12.5864C89.3009 13.1274 89.6014 13.6083 89.7817 14.0291V26.2912C89.6014 26.7721 89.2408 27.253 88.8801 27.7339C88.4593 28.2748 87.9785 28.7557 87.3173 29.1765C86.7162 29.5972 85.9348 29.9579 85.0933 30.2584C84.2517 30.559 83.2299 30.6792 82.0277 30.6792C80.8856 30.6792 79.8638 30.559 78.9622 30.2584C78.0605 29.9579 77.3392 29.5972 76.7381 29.1765C76.1371 28.7557 75.5961 28.2748 75.1753 27.7339C74.7546 27.1929 74.454 26.712 74.2737 26.2912V14.0291ZM84.372 15.0509C84.1916 14.6902 83.9512 14.3897 83.5304 14.1493C83.1097 13.9088 82.6288 13.7886 82.0277 13.7886C81.4266 13.7886 80.9458 13.9088 80.525 14.1493C80.1042 14.3897 79.8638 14.6902 79.6835 15.0509V25.2694C79.8638 25.63 80.1042 25.9306 80.525 26.171C80.9458 26.4115 81.4266 26.5317 82.0277 26.5317C82.6288 26.5317 83.1097 26.4115 83.5304 26.171C83.9512 25.9306 84.1916 25.63 84.372 25.2694V15.0509Z" fill="white"/>
    <path d="M92.3569 27.3131L96.8651 10.0619H104.619L109.127 27.3131V30.2584H104.198L103.116 25.3295H97.8268L96.7449 30.2584H92.3569V27.3131ZM102.275 21.3022L100.892 14.7503H100.351L98.7886 21.3022H102.275Z" fill="white"/>
    <path d="M110.199 13.0072V10.0619H115.429L118.434 24.0672H118.975L122.041 10.0619H126.729V13.0072L122.161 30.2584H114.767L110.199 13.0072Z" fill="white"/>
    <path d="M129.966 10.0619H142.168V14.0891H135.376V17.9962H141.687V21.9634H135.316V26.2311H142.288V30.2584H129.906V10.0619H129.966Z" fill="white"/>
    <path d="M146.005 10.0619H154.841C156.103 10.0619 157.306 10.3624 158.388 10.9635C159.469 11.5646 160.311 12.4061 160.912 13.4881V19.6793C160.612 20.2804 160.191 20.8213 159.71 21.2421C159.229 21.723 158.688 22.0836 158.027 22.3842L161.153 27.253V30.1983H156.885L152.797 23.1656H151.415V30.2584H146.005V10.0619ZM153.639 19.3787C154.721 19.3787 155.442 19.0181 155.803 18.2968V15.1711C155.623 14.8105 155.382 14.57 154.961 14.3897C154.601 14.2094 154.12 14.0891 153.639 14.0891H151.415V19.3787H153.639Z" fill="white"/>
    <path d="M37.2475 9.60077L35.2354 10.7844L22.3128 18.2809L10.3739 11.3543L22.3128 4.77846L25.0851 6.35667L22.9388 6.92658L23.9672 10.7406L32.6419 8.54863L30.4062 0L26.516 0.964461L27.0525 2.93722L23.3412 0.789104H21.329L5.36579 9.60077L5.32108 13.0202L20.3006 21.7004V31.5642V35.1151L8.36169 28.1886V25.076L9.882 26.5227L12.699 23.717L6.34952 17.4918L0 23.717L2.86176 26.5227L4.33735 25.076V29.3284L5.32108 30.9943L21.2843 40.2882L24.3249 38.5784V31.5642V21.7004L26.8737 20.2098L36.2638 14.7738V28.1886L33.4915 29.8106L33.9834 27.7502L30.0932 26.7857L27.9021 35.3343L36.6215 37.4825L37.6053 33.6246L35.5931 33.1424L39.3044 30.9943L40.2882 29.3284V11.3105L37.2475 9.60077Z" fill="white"/>
</svg>
