<svg viewBox="0 0 313 79" fill="none" xmlns="http://www.w3.org/2000/svg">
    <path d="M97.8125 20.2928H111.355L117.192 36.4039H118.243L123.73 20.2928H137.156V59.5197H127.349V35.9369H126.299L120.228 52.2814H114.624L108.553 35.9369H107.502V59.5197H97.8125V20.2928Z" fill="#04246B"/>
    <path d="M144.259 27.9982C144.609 27.0642 145.31 26.1302 146.01 25.1963C146.828 24.1455 147.762 23.2116 149.046 22.3943C150.213 21.5771 151.731 20.8766 153.365 20.2929C155.117 19.7092 156.985 19.4757 159.32 19.4757C161.538 19.4757 163.522 19.7092 165.274 20.2929C167.025 20.8766 168.426 21.5771 169.593 22.3943C170.761 23.2116 171.811 24.1455 172.629 25.1963C173.446 26.247 174.03 27.181 174.38 27.9982V51.8145C174.03 52.7485 173.329 53.6825 172.629 54.6164C171.811 55.6672 170.877 56.6011 169.593 57.4184C168.426 58.2356 166.908 58.9361 165.274 59.5198C163.639 60.1035 161.654 60.337 159.32 60.337C157.101 60.337 155.117 60.1035 153.365 59.5198C151.614 58.9361 150.213 58.2356 149.046 57.4184C147.878 56.6011 146.828 55.6672 146.01 54.6164C145.193 53.5657 144.609 52.6317 144.259 51.8145V27.9982ZM163.873 29.9829C163.522 29.2824 163.055 28.6987 162.238 28.2317C161.421 27.7647 160.487 27.5312 159.32 27.5312C158.152 27.5312 157.218 27.7647 156.401 28.2317C155.584 28.6987 155.117 29.2824 154.766 29.9829V49.8298C155.117 50.5303 155.584 51.114 156.401 51.581C157.218 52.048 158.152 52.2815 159.32 52.2815C160.487 52.2815 161.421 52.048 162.238 51.581C163.055 51.114 163.522 50.5303 163.873 49.8298V29.9829Z" fill="#04246B"/>
    <path d="M179.381 53.7991L188.137 20.2928H203.197L211.953 53.7991V59.5197H202.38L200.279 49.9465H190.005L187.904 59.5197H179.381V53.7991ZM198.644 42.1244L195.959 29.3991H194.908L191.873 42.1244H198.644Z" fill="#04246B"/>
    <path d="M214.035 26.0134V20.2928H224.192L230.03 47.4948H231.08L237.034 20.2928H246.141V26.0134L237.268 59.5197H222.908L214.035 26.0134Z" fill="#04246B"/>
    <path d="M252.427 20.2928H276.126V28.1148H262.934V35.7034H275.192V43.4087H262.817V51.6977H276.36V59.5197H252.31V20.2928H252.427Z" fill="#04246B"/>
    <path d="M283.58 20.2928H300.742C303.193 20.2928 305.528 20.8765 307.63 22.044C309.731 23.2115 311.365 24.8459 312.533 26.9474V38.9723C311.949 40.1398 311.132 41.1905 310.198 42.0077C309.264 42.9417 308.213 43.6422 306.929 44.2259L313 53.6824V59.403H304.711L296.772 45.7436H294.087V59.5197H283.58V20.2928ZM298.407 38.3886C300.508 38.3886 301.909 37.6881 302.609 36.2871V30.2163C302.259 29.5158 301.792 29.0488 300.975 28.6986C300.275 28.3483 299.341 28.1148 298.407 28.1148H294.087V38.3886H298.407Z" fill="#04246B"/>
    <path d="M72.3444 19.3972L68.4362 21.6961L43.3372 36.2562L20.1488 22.803L43.3372 10.031L48.7217 13.0963L44.553 14.2032L46.5505 21.611L63.399 17.3536L59.0566 0.75L51.5009 2.62323L52.5431 6.45484L45.3347 2.28264H41.4265L10.4218 19.3972L10.335 26.0386L39.429 42.8977V62.0557V68.9526L16.2406 55.4994V49.454L19.1935 52.2639L24.6649 46.8145L12.3325 34.7236L6.10352e-05 46.8145L5.55833 52.2639L8.42431 49.454V57.7133L10.335 60.9488L41.3397 79L47.2453 75.6793V62.0557V42.8977L52.1957 40.0027L70.4337 29.4445V55.4994L65.0492 58.6499L66.0045 54.648L58.4487 52.7747L54.1932 69.3784L71.1285 73.5506L73.0392 66.0576L69.131 65.121L76.3394 60.9488L78.25 57.7133V22.7179L72.3444 19.3972Z" fill="url(#paint0_linear_5_1876)"/>
    <defs>
        <linearGradient id="paint0_linear_5_1876" x1="74.2555" y1="0.750005" x2="17.4653" y2="80.2799" gradientUnits="userSpaceOnUse">
            <stop stop-color="#32EE9E"/>
            <stop offset="1" stop-color="#2266FB"/>
        </linearGradient>
    </defs>
</svg>
