<svg xmlns="http://www.w3.org/2000/svg">
    <symbol id="package" viewBox="0 0 701 701" fill="none">
        <path d="M35.6667 0.333313C16.4787 0.333313 0.687988 16.12 0.687988 35.312V665.379C0.687988 684.567 16.48 700.332 35.6667 700.332H665.64C684.828 700.332 700.687 684.567 700.687 665.379V35.312C700.687 16.124 684.827 0.333313 665.64 0.333313H35.6667ZM35.6667 23.688H443.947V182.141L420.613 205.475L393.931 178.767C389.368 174.189 381.946 174.189 377.389 178.767L350.592 205.564L323.909 178.767C319.347 174.189 311.925 174.189 307.368 178.767L280.685 205.475L257.331 182.141V58.6413C257.331 43.084 233.997 43.084 233.997 58.6413V186.953C234.003 190.057 235.237 193.037 237.44 195.224L272.419 230.292C276.981 234.87 284.377 234.87 288.94 230.292L315.648 203.495L342.424 230.292C346.976 234.813 354.325 234.813 358.877 230.292L385.675 203.495L412.451 230.292C417.003 234.813 424.352 234.813 428.904 230.292L463.951 195.224C466.123 193.026 467.341 190.047 467.32 186.953V23.6866H665.654C672.32 23.6866 677.367 28.645 677.367 35.3064V665.373C677.367 672.04 672.32 676.993 665.654 676.993H35.6537C28.9871 676.993 24.034 672.034 24.034 665.373V35.3064C24.034 28.6397 28.9924 23.6866 35.6537 23.6866L35.6667 23.688ZM467.267 431.928C464.319 431.959 461.402 433.152 459.131 435.418L424.063 470.396C413.037 481.422 429.584 497.964 440.605 486.938L455.687 471.807V560.307C455.687 575.864 479.021 575.864 479.021 560.307V471.848L494.083 486.931C505.109 497.957 521.651 481.41 510.625 470.39L475.578 435.411C473.187 433.025 470.208 431.89 467.26 431.921L467.267 431.928ZM583.933 431.928C580.986 431.959 578.069 433.152 575.798 435.418L540.73 470.396C529.704 481.422 546.225 497.964 557.251 486.938L572.334 471.807V560.307C572.334 575.864 595.667 575.864 595.667 560.307V471.848L610.73 486.931C621.756 497.957 638.298 481.41 627.271 470.39L592.225 435.411C589.834 433.025 586.876 431.89 583.928 431.921L583.933 431.928ZM82.3333 513.616H222.387C239.251 515.038 239.251 488.949 222.387 490.371L81.7333 490.376C66.676 492.089 67.78 513.407 82.3375 513.621L82.3333 513.616ZM82.3333 572.017H175.688C191.245 572.017 191.245 548.684 175.688 548.684H81.7293C65.5787 549.502 66.7865 572.835 82.3333 572.017ZM82.3333 606.971C66.776 606.971 66.776 630.304 82.3333 630.304H222.387C237.944 630.304 237.944 606.971 222.387 606.971H82.3333ZM432.333 606.971C416.776 606.971 416.776 630.304 432.333 630.304H618.947C634.504 630.304 634.504 606.971 618.947 606.971H432.333Z" fill="currentColor"/>
    </symbol>
    <symbol id="trolley" viewBox="0 0 608 701" fill="none">
        <path d="M12 0.333318C-3.77603 0.114571 -3.77603 23.8907 12 23.6667H70.3333C78.7656 23.6667 86.932 28.5781 88.792 35.5156L225.059 543.676C196.048 556.223 175.637 585.097 175.637 618.618C175.637 663.582 212.315 700.353 257.283 700.353C302.247 700.353 338.928 663.582 338.928 618.618C338.928 615.363 338.688 612.181 338.313 609.025L598.38 539.342C611.682 535.925 609.177 516.331 595.443 516.373C594.385 516.373 593.338 516.503 592.323 516.815L332.309 586.471C319.783 557.419 290.851 536.982 257.299 536.982C254.023 536.982 250.814 537.248 247.637 537.623L111.331 29.4759C106.2 10.3665 87.7574 0.335851 70.3361 0.335851L12 0.333318ZM391.827 39.0933L189 93.4373C170.464 98.4061 159.265 117.765 164.229 136.297L213.813 321.271C217.61 336.687 240.772 330.484 236.349 315.234L186.787 130.261C185.063 123.823 188.599 117.698 195.037 115.974L319.015 82.7503L331.5 129.281L312.292 122.833C307.807 121.297 302.833 122.614 299.714 126.182L286.385 141.427L282.922 128.688C279.786 112.234 254.938 118.891 260.452 134.703L269.499 168.474C271.864 177.531 283.385 180.255 289.551 173.214L312.135 147.464L344.605 158.402C353.438 161.438 362.074 153.391 359.667 144.366L341.506 76.7351L397.881 61.6257C404.318 59.9017 410.443 63.4383 412.167 69.8757L466.511 272.716C468.235 279.153 464.699 285.278 458.261 287.002L255.421 341.346C236.885 346.315 225.708 365.674 230.676 384.206L264.036 508.712C267.833 524.128 290.995 517.925 286.572 502.675L253.212 378.17C251.488 371.733 255.025 365.607 261.462 363.883L385.421 330.686L397.817 377.217L378.697 370.769C374.238 369.269 369.316 370.592 366.212 374.118L352.858 389.295L349.415 376.535C345.399 361.488 322.836 367.529 326.858 382.571L335.905 416.41C338.321 425.436 349.817 428.102 355.957 421.061L378.607 395.311L411.077 406.337C419.925 409.322 428.525 401.218 426.071 392.207L407.978 324.623L464.306 309.54C470.743 307.816 476.868 311.353 478.593 317.79L526.899 498.097C530.696 513.513 553.858 507.31 549.435 492.06L501.129 311.754C498.806 303.092 493.28 296.139 486.227 291.587C490.055 284.118 491.373 275.336 489.055 266.68L434.711 63.8404C428.894 42.1324 407.597 34.8711 391.826 39.0951L391.827 39.0933ZM310.936 278.187L265.889 290.239C250.556 294.093 256.723 317.119 271.926 312.796L316.952 300.676C332.739 296.426 325.847 274.192 310.936 278.187ZM377.425 526.053L332.285 538.178C316.009 541.439 322.603 566.001 338.322 560.668L383.442 548.616C398.087 544.699 392.739 521.944 377.426 526.058L377.425 526.053ZM257.275 560.324C289.629 560.324 315.587 586.256 315.587 618.611C315.587 650.965 289.628 677.012 257.275 677.012C224.921 677.012 198.895 650.965 198.895 618.611C198.895 586.256 224.921 560.324 257.275 560.324ZM257.275 583.657C238.081 583.657 222.228 599.417 222.228 618.611C222.228 637.804 238.083 653.679 257.275 653.679C276.467 653.679 292.253 637.804 292.253 618.611C292.253 599.417 276.467 583.657 257.275 583.657ZM257.275 606.991C263.858 606.991 268.894 612.032 268.894 618.61C268.894 625.194 263.853 630.345 257.275 630.345C250.691 630.345 245.561 625.194 245.561 618.61C245.561 612.027 250.691 606.991 257.275 606.991Z" fill="currentColor"/>
    </symbol>
    <symbol id="pallet" viewBox="0 0 701 701" fill="none">
        <path d="M245.693 0.354675C226.505 0.354675 210.625 16.12 210.625 35.308V222.028C210.625 237.601 233.98 237.601 233.98 222.028V35.308C233.98 28.6413 239.027 23.6883 245.694 23.6883H374.006V71.9283L357.12 60.6261C353.209 58.022 348.136 58.022 344.224 60.6261L327.339 71.9283V58.6419C327.339 43.0845 303.984 43.0845 303.984 58.6419V93.7099C304.021 103.028 314.432 108.543 322.167 103.351L350.672 84.3239L379.178 103.351C386.912 108.543 397.308 103.043 397.339 93.7099V23.6885H455.651C462.318 23.6885 467.365 28.6469 467.365 35.3083V245.375C467.365 252.042 462.318 256.995 455.651 256.995L374.006 257C365.032 257 356.891 260.161 350.672 265.797C344.454 260.161 336.312 257 327.339 257H117.366C98.1777 257 82.319 272.765 82.319 291.953V478.673C81.9597 494.58 106.012 494.58 105.652 478.673V291.953C105.652 285.287 110.699 280.333 117.366 280.333H245.699V328.573L228.814 317.271C224.903 314.667 219.809 314.667 215.892 317.271L199.007 328.573V315.287C199.007 299.73 175.673 299.73 175.673 315.287V350.355C175.637 359.714 186.064 365.303 193.835 360.084L222.34 341.058L250.867 360.084C258.638 365.298 269.064 359.73 269.028 350.355V280.334H327.345C333.564 280.334 339.059 284.901 339.059 293.891V478.664C337.538 495.612 363.824 495.612 362.299 478.664V293.824C362.299 284.543 367.929 280.335 374.013 280.335H502.346V328.575L485.461 317.273C481.549 314.669 476.456 314.669 472.539 317.273L455.653 328.575V315.289C455.653 299.731 432.32 299.731 432.32 315.289V350.357C432.284 359.716 442.711 365.305 450.481 360.086L478.987 341.059L507.513 360.086C515.284 365.299 525.711 359.732 525.675 350.357V280.335H583.987C590.654 280.335 595.701 285.294 595.701 291.955V478.675C595.341 494.582 619.394 494.582 619.034 478.675V291.955C619.034 272.767 603.174 257.002 583.987 257.002H488.555C489.873 253.34 490.722 249.471 490.722 245.382V35.3154C490.722 16.1274 474.842 0.362015 455.654 0.362015L245.693 0.354675ZM269.027 210.301C253.813 210.655 253.813 233.296 269.027 233.635H315.715C330.928 233.281 330.928 210.64 315.715 210.301H269.027ZM140.715 466.941C124.808 466.587 124.808 490.629 140.715 490.275H187.288C203.195 490.629 203.195 466.587 187.288 466.941H140.715ZM397.328 466.941C381.421 466.587 381.421 490.629 397.328 490.275H444.016C459.923 490.629 459.923 466.587 444.016 466.941H397.328ZM12.2746 513.629C5.83195 513.65 0.62875 518.9 0.654883 525.343V572.01C0.675717 578.416 5.86848 583.603 12.2746 583.629H35.608V630.317L12.2799 630.323C5.87368 630.343 0.686214 635.536 0.660214 641.942V688.63C0.63938 695.073 5.83728 700.318 12.2799 700.344H689.04C695.483 700.323 700.686 695.073 700.66 688.63V641.942C700.639 635.536 695.446 630.349 689.04 630.323H665.707V583.635H689.04C695.446 583.614 700.634 578.421 700.66 572.015V525.348C700.681 518.906 695.483 513.661 689.04 513.635L12.2746 513.629ZM23.9882 536.963H677.322V560.296H23.9882V536.963ZM58.9669 583.629H82.3002V630.317L58.9722 630.323L58.9669 583.629ZM105.634 583.629L222.327 583.635V630.323H105.639L105.634 583.629ZM245.687 583.629H269.02V630.317L245.687 630.323V583.629ZM292.354 583.629L408.979 583.635V630.323H292.354V583.629ZM432.3 583.629H455.634V630.317H432.3V583.629ZM478.967 583.629H595.68V630.317H478.967V583.629ZM619.02 583.629H642.354V630.317L619.02 630.323V583.629ZM23.9936 653.656H677.327V677.011H23.9936V653.656Z" fill="currentColor"/>
    </symbol>
    <symbol id="warehouse" viewBox="0 0 701 701" fill="none">
        <path d="M345.613 1.47335L7.22666 164.86C3.21626 166.824 0.679734 170.902 0.685067 175.365V233.677C0.700692 242.25 9.65387 247.88 17.3877 244.182L350.681 83.3024L683.894 244.182C691.655 247.979 700.706 242.318 700.686 233.677V175.365C700.681 170.881 698.103 166.797 694.056 164.86L355.776 1.47335C351.604 -0.542253 348.865 -0.0943861 345.615 1.47335H345.613ZM350.697 24.9L677.337 182.7V215.08L355.777 59.7867C352.568 58.2346 348.824 58.2346 345.615 59.7867L24.0285 215.08V182.7L350.697 24.9ZM292.295 163.647C276.389 163.293 276.389 187.335 292.295 186.98H408.983C424.89 187.334 424.89 163.292 408.983 163.647H292.295ZM129.015 233.668C122.573 233.647 117.328 238.845 117.302 245.288V630.354H82.3431V256.994C82.4733 249.932 76.3483 244.375 69.3327 245.192C63.3587 245.869 58.8796 250.984 58.9889 256.994V630.354H12.3223C5.916 630.375 0.728533 635.568 0.702533 641.974V688.641C0.676492 695.084 5.8796 700.328 12.3223 700.354H688.989C695.468 700.375 700.723 695.12 700.703 688.641V641.974C700.682 635.531 695.432 630.328 688.989 630.354H642.301V256.994C642.431 249.942 636.322 244.39 629.311 245.192C623.374 245.916 618.942 251.015 619.056 256.994V630.354H583.988V245.288C583.967 238.882 578.775 233.694 572.368 233.668H129.015ZM140.635 257.001H560.662V630.361H140.635V257.001ZM292.302 303.689C273.114 303.689 257.348 319.455 257.348 338.643V431.997C256.994 447.904 281.036 447.904 280.682 431.997V338.643C280.682 331.976 285.64 327.023 292.301 327.023H315.635V373.711C315.645 382.372 324.77 387.998 332.52 384.122L350.703 375.075L368.771 384.122C376.521 387.992 385.64 382.372 385.656 373.711V327.023H408.989C415.656 327.023 420.724 331.981 420.724 338.643V455.356C420.724 462.023 415.656 466.976 408.989 466.976H374.036C365.073 466.976 356.916 470.517 350.681 476.158C344.468 470.517 336.332 466.976 327.369 466.976H210.656C191.468 466.976 175.703 482.836 175.703 502.022V595.288C175.349 611.194 199.391 611.194 199.036 595.288V502.022C199.036 495.356 203.995 490.309 210.656 490.309H233.989V536.975C233.989 545.647 243.114 551.287 250.875 547.413L269.057 538.366L287.125 547.413C294.88 551.288 304.011 545.647 304.011 536.975V490.309H327.365C334.032 490.309 338.985 495.356 338.985 502.022V595.288C339.324 610.501 361.98 610.501 362.318 595.288V502.501C362.323 502.324 362.323 502.194 362.318 502.022C362.318 495.355 367.365 490.308 374.032 490.308H397.365V536.975C397.365 545.647 406.49 551.287 414.251 547.412L432.344 538.365L450.412 547.412C458.167 551.287 467.297 545.647 467.297 536.975V490.308H490.631C497.297 490.308 502.365 495.355 502.365 502.022V595.287C502.011 611.194 526.053 611.194 525.698 595.287V502.022C525.698 482.834 509.818 466.975 490.63 466.975H441.89C443.208 463.314 444.057 459.444 444.057 455.356V338.642C444.057 319.454 428.177 303.689 408.989 303.689L292.302 303.689ZM338.99 327.023H362.323V354.752L355.875 351.559C352.589 349.919 348.724 349.919 345.438 351.559L338.99 354.752L338.99 327.023ZM257.344 490.316H280.678V518.139L274.23 514.946C270.943 513.305 267.079 513.305 263.792 514.946L257.345 518.139L257.344 490.316ZM420.731 490.316H444.064V518.139L437.596 514.857C434.293 513.191 430.393 513.191 427.09 514.857L420.731 518.05V490.316ZM24.0377 653.703C241.398 653.833 461.211 653.703 677.371 653.703V677.036L24.0377 677.031V653.703Z" fill="currentColor"/>
    </symbol>
</svg>
